<svg width="502" height="383" viewBox="0 0 502 383" fill="none" xmlns="http://www.w3.org/2000/svg">
<circle cx="315.5" cy="315.5" r="315.5" fill="#C3E2E5"/>
<circle cx="315.499" cy="315.5" r="257.968" fill="#94C7CD"/>
<circle cx="314.883" cy="314.881" r="197.961" fill="#DBEFF2"/>
<g opacity="0.6">
<path d="M302.49 318.272V365.826C293.561 363.611 285.3 358.763 279.174 351.908C277.219 349.654 275.434 347.197 273.99 344.57C278.497 332.077 289.561 321.823 302.49 318.272Z" fill="#0A92A4"/>
<path d="M383.325 269.984C383.325 273.96 382.851 277.819 381.904 281.535C367.536 263.152 345.201 251.937 321.568 250.148C299.706 247.634 294.853 279.774 316.266 283.997C311.641 283.85 306.968 284.338 302.49 285.464V285.654C293.263 287.945 284.481 293.299 278.582 300.4V300.424C274.014 305.797 270.889 312.212 269.682 319.219V226.714C269.682 221.483 273.919 217.246 279.15 217.246C293.443 218.022 332.4 214.945 345.452 220.418C367.498 227.822 383.277 247.042 383.325 269.984Z" fill="#0A92A4"/>
<path d="M397.409 325.633C395.951 401.308 293.509 427.09 248.213 370.939C218.956 337.147 231.241 283.315 269.682 262.196C269.682 265.349 269.886 325.07 269.114 325.799C269.076 335.424 272.84 344.764 279.174 351.908C300.681 377.117 346.763 370.565 357.997 338.771L357.974 338.747C360.88 330.903 360.947 321.425 358.21 313.514C358.187 313.514 358.187 313.538 358.163 313.538C356.563 308.676 353.992 304.178 350.659 300.259V300.235C342.493 290.36 329.223 284.338 316.266 283.997C294.806 279.575 299.701 247.667 321.71 250.148C361.283 252.596 397.802 284.958 397.409 325.633Z" stroke="#0A92A4" stroke-width="1.89365" stroke-miterlimit="10"/>
<path d="M357.808 312.52C355.645 313.604 353.391 314.551 351.015 315.289C343.502 317.751 334.976 318.276 327.178 316.851C319.041 315.166 310.15 315.63 302.277 318.201C289.414 322.234 278.488 331.972 273.991 344.57C266.487 331.172 268.201 311.899 278.583 300.424V300.4C295.976 278.983 333.276 278.775 350.66 300.235V300.258C353.761 303.904 356.199 308.046 357.808 312.52Z" fill="#0A92A4" stroke="#0A6BE9" stroke-width="0.710118" stroke-miterlimit="10"/>
</g>
</svg>
