<svg width="386" height="209" viewBox="0 0 386 209" fill="none" xmlns="http://www.w3.org/2000/svg">
<g opacity="0.25">
<circle cx="138.1" cy="247.1" r="247.1" fill="#C3E2E5"/>
<circle cx="138.099" cy="247.1" r="202.041" fill="#94C7CD"/>
<circle cx="137.617" cy="246.615" r="155.043" fill="#DBEFF2"/>
<g opacity="0.6">
<path d="M191.219 211.452C191.219 214.566 190.848 217.588 190.106 220.499C178.853 206.101 161.36 197.318 142.851 195.916C125.729 193.947 121.928 219.119 138.698 222.427C135.076 222.312 131.416 222.694 127.909 223.576V223.724C120.682 225.519 113.804 229.712 109.184 235.274V235.293C105.606 239.501 103.159 244.525 102.214 250.012V177.563C102.214 173.466 105.532 170.147 109.629 170.147C120.823 170.755 151.334 168.345 161.557 172.631C178.824 178.43 191.182 193.484 191.219 211.452Z" fill="#0A92A4"/>
<path d="M202.25 255.036C201.108 314.305 120.875 334.498 85.3993 290.52C62.4853 264.054 72.107 221.893 102.214 205.352C102.214 207.822 102.373 254.595 101.769 255.166C101.739 262.704 104.687 270.02 109.648 275.615C126.493 295.358 162.584 290.227 171.382 265.326L171.364 265.307C173.64 259.163 173.692 251.74 171.549 245.545C171.531 245.545 171.531 245.563 171.512 245.563C170.259 241.755 168.246 238.233 165.635 235.163V235.144C159.24 227.41 148.847 222.694 138.698 222.427C121.891 218.964 125.725 193.973 142.962 195.916C173.956 197.833 202.557 223.179 202.25 255.036Z" stroke="#0A92A4" stroke-width="1.48311" stroke-miterlimit="10"/>
</g>
</g>
</svg>
