<svg width="198" height="35" viewBox="0 0 198 35" fill="none" xmlns="http://www.w3.org/2000/svg">
<path d="M13.4893 19.1143V28.0959C11.8029 27.6775 10.2427 26.7619 9.08567 25.4672C8.7164 25.0415 8.37931 24.5775 8.1066 24.0812C8.95781 21.7216 11.0474 19.7849 13.4893 19.1143Z" fill="#087583"/>
<path d="M28.7554 9.99389C28.7554 10.745 28.666 11.4737 28.4871 12.1756C25.7735 8.70364 21.5549 6.58541 17.0914 6.24742C12.9623 5.77263 12.0458 11.843 16.09 12.6406C15.2164 12.6128 14.3339 12.7049 13.4881 12.9177V12.9535C11.7454 13.3863 10.0868 14.3975 8.97272 15.7388V15.7432C8.10988 16.7581 7.51975 17.9697 7.29175 19.293V1.82141C7.29175 0.833377 8.092 0.0331176 9.08001 0.0331176C11.7794 0.179757 19.1372 -0.401437 21.6023 0.632194C25.7663 2.03064 28.7464 5.66086 28.7554 9.99389Z" fill="#087583"/>
<path d="M31.4159 20.5038C31.1405 34.7967 11.7924 39.6662 3.23735 29.0607C-2.28839 22.6783 0.0318876 12.511 7.29224 8.52223C7.29224 9.11773 7.33069 20.3974 7.18494 20.5351C7.17779 22.3529 7.88863 24.117 9.08497 25.4663C13.147 30.2276 21.8505 28.9901 23.9723 22.985L23.9678 22.9805C24.5168 21.4989 24.5293 19.7089 24.0125 18.2148C24.008 18.2148 24.008 18.2192 24.0036 18.2192C23.7013 17.3009 23.2158 16.4515 22.5864 15.7112V15.7067C21.044 13.8415 18.5377 12.7041 16.0905 12.6398C12.0374 11.8046 12.9619 5.7781 17.1188 6.24663C24.5928 6.7089 31.4901 12.8213 31.4159 20.5038Z" stroke="#087583" stroke-width="0.353989" stroke-miterlimit="10"/>
<path d="M23.9362 18.0276C23.5276 18.2324 23.102 18.4112 22.6532 18.5507C21.2342 19.0156 19.6238 19.1149 18.1512 18.8457C16.6142 18.5274 14.935 18.6151 13.4481 19.1006C11.0187 19.8624 8.95506 21.7016 8.10563 24.081C6.68843 21.5505 7.01211 17.9105 8.97294 15.7431V15.7386C12.258 11.6935 19.3029 11.6541 22.5861 15.7073V15.7118C23.1718 16.4003 23.6322 17.1826 23.9362 18.0276Z" fill="#087583" stroke="#087583" stroke-width="0.132746" stroke-miterlimit="10"/>
<path d="M60.056 17.4585C60.056 18.3711 59.9353 19.2523 59.6937 20.1022C59.4611 20.9432 59.1301 21.735 58.7006 22.4775C58.2712 23.2112 57.7523 23.8821 57.144 24.4905C56.5356 25.0989 55.8646 25.6222 55.131 26.0606C54.3974 26.49 53.6056 26.8211 52.7557 27.0537C51.9058 27.2952 51.0245 27.416 50.112 27.416C49.1995 27.416 48.3182 27.2952 47.4683 27.0537C46.6273 26.8211 45.8356 26.49 45.093 26.0606C44.3594 25.6222 43.6884 25.0989 43.08 24.4905C42.4717 23.8821 41.9483 23.2112 41.5099 22.4775C41.0805 21.735 40.745 20.9432 40.5034 20.1022C40.2708 19.2523 40.1545 18.3711 40.1545 17.4585C40.1545 16.546 40.2708 15.6648 40.5034 14.8149C40.745 13.9649 41.0805 13.1732 41.5099 12.4396C41.9483 11.7059 42.4717 11.035 43.08 10.4266C43.6884 9.81823 44.3594 9.29933 45.093 8.8699C45.8356 8.44046 46.6273 8.10944 47.4683 7.87683C48.3182 7.63528 49.1995 7.5145 50.112 7.5145C51.0245 7.5145 51.9058 7.63528 52.7557 7.87683C53.6056 8.10944 54.3974 8.44046 55.131 8.8699C55.8646 9.29933 56.5356 9.81823 57.144 10.4266C57.7523 11.035 58.2712 11.7059 58.7006 12.4396C59.1301 13.1732 59.4611 13.9649 59.6937 14.8149C59.9353 15.6648 60.056 16.546 60.056 17.4585ZM56.2314 17.4585C56.2314 16.6176 56.0704 15.8258 55.7483 15.0832C55.4262 14.3317 54.9878 13.6831 54.4332 13.1374C53.8874 12.5827 53.2388 12.1443 52.4873 11.8222C51.7447 11.5002 50.953 11.3391 50.112 11.3391C49.2621 11.3391 48.4658 11.5002 47.7233 11.8222C46.9807 12.1443 46.3321 12.5827 45.7774 13.1374C45.2227 13.6831 44.7843 14.3317 44.4623 15.0832C44.1402 15.8258 43.9792 16.6176 43.9792 17.4585C43.9792 18.2995 44.1402 19.0913 44.4623 19.8338C44.7843 20.5675 45.2227 21.2116 45.7774 21.7663C46.3321 22.321 46.9807 22.7594 47.7233 23.0814C48.4658 23.4035 49.2621 23.5645 50.112 23.5645C50.953 23.5645 51.7447 23.4035 52.4873 23.0814C53.2388 22.7594 53.8874 22.321 54.4332 21.7663C54.9878 21.2116 55.4262 20.5675 55.7483 19.8338C56.0704 19.0913 56.2314 18.2995 56.2314 17.4585ZM65.8936 32.4753H62.2032V12.6274H63.0889L64.5517 14.3586C64.8827 14.0455 65.245 13.7502 65.6387 13.4729C66.0323 13.1955 66.4394 12.9585 66.8599 12.7616C67.2893 12.5559 67.7321 12.3948 68.1884 12.2785C68.6447 12.1622 69.1054 12.1041 69.5707 12.1041C70.5816 12.1041 71.5299 12.2875 72.4156 12.6543C73.3103 13.0121 74.0886 13.5221 74.7507 14.1841C75.4217 14.8462 75.9495 15.6469 76.3342 16.5863C76.7189 17.5167 76.9113 18.55 76.9113 19.6862C76.9113 20.8672 76.7189 21.9318 76.3342 22.8801C75.9495 23.8195 75.4217 24.6202 74.7507 25.2823C74.0886 25.9354 73.3103 26.4364 72.4156 26.7853C71.5299 27.1342 70.5816 27.3087 69.5707 27.3087C69.2486 27.3087 68.9265 27.2729 68.6044 27.2013C68.2913 27.1297 67.9782 27.0358 67.665 26.9195C67.3609 26.7942 67.0567 26.6556 66.7525 26.5035C66.4573 26.3514 66.171 26.1948 65.8936 26.0338V32.4753ZM73.2343 19.6862C73.2343 19.0779 73.1358 18.5321 72.939 18.049C72.7511 17.5659 72.4917 17.1588 72.1607 16.8278C71.8296 16.4879 71.4405 16.2284 70.9932 16.0495C70.5458 15.8705 70.0717 15.7811 69.5707 15.7811C69.0697 15.7811 68.5955 15.8705 68.1482 16.0495C67.7098 16.2284 67.3251 16.4879 66.9941 16.8278C66.663 17.1588 66.3991 17.5659 66.2023 18.049C66.0144 18.5321 65.9205 19.0779 65.9205 19.6862C65.9205 20.2678 66.0144 20.8001 66.2023 21.2832C66.3991 21.7663 66.663 22.1778 66.9941 22.5178C67.3251 22.8578 67.7098 23.1217 68.1482 23.3096C68.5955 23.4974 69.0697 23.5914 69.5707 23.5914C70.0717 23.5914 70.5458 23.4974 70.9932 23.3096C71.4405 23.1217 71.8296 22.8578 72.1607 22.5178C72.4917 22.1778 72.7511 21.7663 72.939 21.2832C73.1358 20.8001 73.2343 20.2678 73.2343 19.6862ZM84.6679 23.484C84.811 23.5288 84.9542 23.5601 85.0973 23.578C85.2405 23.5869 85.3836 23.5914 85.5268 23.5914C85.8846 23.5914 86.2291 23.5422 86.5601 23.4438C86.8911 23.3454 87.1998 23.2067 87.486 23.0277C87.7813 22.8399 88.0407 22.6162 88.2644 22.3568C88.497 22.0884 88.6849 21.7931 88.828 21.4711L91.512 24.1684C91.172 24.6515 90.7784 25.0854 90.331 25.4701C89.8927 25.8548 89.414 26.1814 88.8951 26.4498C88.3852 26.7182 87.8439 26.9195 87.2713 27.0537C86.7077 27.1968 86.1262 27.2684 85.5268 27.2684C84.5158 27.2684 83.563 27.0805 82.6683 26.7048C81.7826 26.329 81.0043 25.8056 80.3333 25.1347C79.6713 24.4637 79.1479 23.6674 78.7632 22.7459C78.3785 21.8155 78.1861 20.7956 78.1861 19.6862C78.1861 18.55 78.3785 17.5122 78.7632 16.5728C79.1479 15.6335 79.6713 14.8327 80.3333 14.1707C81.0043 13.5087 81.7826 12.9942 82.6683 12.6274C83.563 12.2606 84.5158 12.0772 85.5268 12.0772C86.1262 12.0772 86.7122 12.1488 87.2847 12.2919C87.8573 12.4351 88.3986 12.6409 88.9085 12.9092C89.4274 13.1776 89.9105 13.5087 90.3579 13.9023C90.8052 14.287 91.1988 14.7209 91.5388 15.204L84.6679 23.484ZM86.5467 15.9287C86.3767 15.8661 86.2067 15.8258 86.0367 15.8079C85.8757 15.79 85.7057 15.7811 85.5268 15.7811C85.0258 15.7811 84.5516 15.875 84.1043 16.0629C83.6659 16.2418 83.2812 16.5013 82.9502 16.8412C82.6281 17.1812 82.3731 17.5927 82.1852 18.0759C81.9974 18.55 81.9034 19.0868 81.9034 19.6862C81.9034 19.8204 81.9079 19.9725 81.9168 20.1425C81.9347 20.3125 81.9571 20.4869 81.9839 20.6659C82.0197 20.8359 82.06 21.0014 82.1047 21.1624C82.1494 21.3234 82.2076 21.4666 82.2792 21.5918L86.5467 15.9287ZM97.0543 27H93.3907V12.6274H94.2764L95.4842 14.0231C96.0747 13.4863 96.7412 13.0748 97.4838 12.7885C98.2353 12.4932 99.0181 12.3456 99.8322 12.3456C100.709 12.3456 101.537 12.5156 102.315 12.8556C103.093 13.1866 103.773 13.6473 104.355 14.2378C104.936 14.8193 105.392 15.5037 105.724 16.291C106.063 17.0694 106.233 17.9014 106.233 18.7871V27H102.57V18.7871C102.57 18.4114 102.498 18.058 102.355 17.7269C102.212 17.387 102.015 17.0917 101.765 16.8412C101.514 16.5907 101.223 16.3939 100.892 16.2508C100.561 16.1076 100.208 16.0361 99.8322 16.0361C99.4475 16.0361 99.0852 16.1076 98.7452 16.2508C98.4053 16.3939 98.11 16.5907 97.8595 16.8412C97.609 17.0917 97.4122 17.387 97.2691 17.7269C97.1259 18.058 97.0543 18.4114 97.0543 18.7871V27Z" fill="#FAFAFA"/>
<path d="M112.742 25.6312C112.742 25.9533 112.684 26.2574 112.568 26.5437C112.451 26.8211 112.29 27.0626 112.085 27.2684C111.879 27.4742 111.637 27.6352 111.36 27.7515C111.083 27.8768 110.783 27.9394 110.461 27.9394C110.148 27.9394 109.848 27.8768 109.562 27.7515C109.284 27.6352 109.038 27.4742 108.824 27.2684C108.618 27.0626 108.452 26.8211 108.327 26.5437C108.211 26.2574 108.153 25.9533 108.153 25.6312C108.153 25.3181 108.211 25.0228 108.327 24.7455C108.452 24.4681 108.618 24.2266 108.824 24.0208C109.038 23.815 109.284 23.654 109.562 23.5377C109.848 23.4124 110.148 23.3498 110.461 23.3498C110.783 23.3498 111.083 23.4124 111.36 23.5377C111.637 23.654 111.879 23.815 112.085 24.0208C112.29 24.2266 112.451 24.4681 112.568 24.7455C112.684 25.0228 112.742 25.3181 112.742 25.6312Z" fill="#FAFAFA"/>
<path d="M118.486 11.6075V19.3105H122.337C122.865 19.3105 123.362 19.2121 123.827 19.0152C124.292 18.8095 124.699 18.5321 125.048 18.1832C125.397 17.8343 125.67 17.4272 125.867 16.962C126.072 16.4879 126.175 15.9868 126.175 15.459C126.175 14.9312 126.072 14.4346 125.867 13.9694C125.67 13.4952 125.397 13.0837 125.048 12.7348C124.699 12.3859 124.292 12.113 123.827 11.9162C123.362 11.7104 122.865 11.6075 122.337 11.6075H118.486ZM118.486 27H114.634V7.75606H122.337C123.044 7.75606 123.724 7.85 124.377 8.03787C125.03 8.2168 125.639 8.47625 126.202 8.81622C126.775 9.14724 127.294 9.54983 127.759 10.024C128.233 10.4892 128.636 11.0081 128.967 11.5807C129.307 12.1533 129.566 12.7661 129.745 13.4192C129.933 14.0723 130.027 14.7522 130.027 15.459C130.027 16.5147 129.826 17.5122 129.423 18.4516C129.02 19.382 128.47 20.1962 127.772 20.894C127.074 21.5918 126.256 22.142 125.316 22.5446C124.386 22.9472 123.393 23.1485 122.337 23.1485H118.486V27ZM135.569 27H131.906V12.6274H132.791L133.999 14.3317C134.59 13.795 135.261 13.3834 136.012 13.0971C136.764 12.8019 137.542 12.6543 138.347 12.6543H141.581V16.3044H138.347C137.962 16.3044 137.6 16.376 137.26 16.5192C136.92 16.6623 136.625 16.8591 136.374 17.1096C136.124 17.3601 135.927 17.6554 135.784 17.9953C135.641 18.3353 135.569 18.6976 135.569 19.0823V27ZM156.907 19.6862C156.907 20.7598 156.714 21.7618 156.33 22.6923C155.945 23.6137 155.421 24.4145 154.759 25.0944C154.097 25.7654 153.319 26.2977 152.424 26.6913C151.539 27.076 150.586 27.2684 149.566 27.2684C148.555 27.2684 147.602 27.076 146.708 26.6913C145.822 26.2977 145.044 25.7654 144.373 25.0944C143.71 24.4145 143.187 23.6137 142.802 22.6923C142.418 21.7618 142.225 20.7598 142.225 19.6862C142.225 18.5948 142.418 17.5838 142.802 16.6534C143.187 15.7229 143.71 14.9222 144.373 14.2512C145.044 13.5713 145.822 13.039 146.708 12.6543C147.602 12.2696 148.555 12.0772 149.566 12.0772C150.586 12.0772 151.539 12.2606 152.424 12.6274C153.319 12.9853 154.097 13.4997 154.759 14.1707C155.421 14.8327 155.945 15.6335 156.33 16.5728C156.714 17.5033 156.907 18.5411 156.907 19.6862ZM153.216 19.6862C153.216 19.0958 153.118 18.5634 152.921 18.0893C152.733 17.6062 152.474 17.1946 152.143 16.8547C151.812 16.5057 151.422 16.2418 150.975 16.0629C150.537 15.875 150.067 15.7811 149.566 15.7811C149.065 15.7811 148.591 15.875 148.143 16.0629C147.705 16.2418 147.32 16.5057 146.989 16.8547C146.667 17.1946 146.412 17.6062 146.224 18.0893C146.037 18.5634 145.943 19.0958 145.943 19.6862C145.943 20.2409 146.037 20.7553 146.224 21.2295C146.412 21.7037 146.667 22.1152 146.989 22.4641C147.32 22.813 147.705 23.0904 148.143 23.2961C148.591 23.493 149.065 23.5914 149.566 23.5914C150.067 23.5914 150.537 23.4974 150.975 23.3096C151.422 23.1217 151.812 22.8578 152.143 22.5178C152.474 22.1778 152.733 21.7663 152.921 21.2832C153.118 20.8001 153.216 20.2678 153.216 19.6862ZM163.429 27H159.765V16.2776H157.98V12.6274H159.765V11.943C159.765 11.0573 159.931 10.2253 160.262 9.44695C160.601 8.6686 161.062 7.99314 161.644 7.42056C162.234 6.83904 162.919 6.38277 163.697 6.05175C164.475 5.71178 165.307 5.5418 166.193 5.5418H168.944V9.19197H166.193C165.799 9.19197 165.433 9.26354 165.093 9.40669C164.762 9.54089 164.471 9.73324 164.22 9.98374C163.979 10.2253 163.786 10.5161 163.643 10.856C163.5 11.187 163.429 11.5494 163.429 11.943V12.6274H167.924V16.2776H163.429V27ZM174.527 8.72228C174.527 9.06225 174.46 9.37985 174.325 9.67508C174.2 9.97032 174.026 10.2298 173.802 10.4534C173.578 10.6681 173.314 10.8426 173.01 10.9768C172.715 11.1021 172.397 11.1647 172.058 11.1647C171.718 11.1647 171.395 11.1021 171.091 10.9768C170.796 10.8426 170.537 10.6681 170.313 10.4534C170.098 10.2298 169.924 9.97032 169.79 9.67508C169.664 9.37985 169.602 9.06225 169.602 8.72228C169.602 8.39126 169.664 8.07813 169.79 7.7829C169.924 7.47872 170.098 7.21927 170.313 7.00455C170.537 6.78089 170.796 6.60643 171.091 6.48118C171.395 6.34698 171.718 6.27988 172.058 6.27988C172.397 6.27988 172.715 6.34698 173.01 6.48118C173.314 6.60643 173.578 6.78089 173.802 7.00455C174.026 7.21927 174.2 7.47872 174.325 7.7829C174.46 8.07813 174.527 8.39126 174.527 8.72228ZM173.896 27H170.206V12.6274H173.896V27ZM180.391 27H176.701V6.91061H180.391V27ZM188.913 23.484C189.056 23.5288 189.199 23.5601 189.342 23.578C189.485 23.5869 189.628 23.5914 189.772 23.5914C190.129 23.5914 190.474 23.5422 190.805 23.4438C191.136 23.3454 191.445 23.2067 191.731 23.0277C192.026 22.8399 192.286 22.6162 192.509 22.3568C192.742 22.0884 192.93 21.7931 193.073 21.4711L195.757 24.1684C195.417 24.6515 195.023 25.0854 194.576 25.4701C194.137 25.8548 193.659 26.1814 193.14 26.4498C192.63 26.7182 192.089 26.9195 191.516 27.0537C190.953 27.1968 190.371 27.2684 189.772 27.2684C188.761 27.2684 187.808 27.0805 186.913 26.7048C186.027 26.329 185.249 25.8056 184.578 25.1347C183.916 24.4637 183.393 23.6674 183.008 22.7459C182.623 21.8155 182.431 20.7956 182.431 19.6862C182.431 18.55 182.623 17.5122 183.008 16.5728C183.393 15.6335 183.916 14.8327 184.578 14.1707C185.249 13.5087 186.027 12.9942 186.913 12.6274C187.808 12.2606 188.761 12.0772 189.772 12.0772C190.371 12.0772 190.957 12.1488 191.53 12.2919C192.102 12.4351 192.643 12.6409 193.153 12.9092C193.672 13.1776 194.155 13.5087 194.603 13.9023C195.05 14.287 195.444 14.7209 195.784 15.204L188.913 23.484ZM190.791 15.9287C190.622 15.8661 190.452 15.8258 190.282 15.8079C190.121 15.79 189.951 15.7811 189.772 15.7811C189.271 15.7811 188.796 15.875 188.349 16.0629C187.911 16.2418 187.526 16.5013 187.195 16.8412C186.873 17.1812 186.618 17.5927 186.43 18.0759C186.242 18.55 186.148 19.0868 186.148 19.6862C186.148 19.8204 186.153 19.9725 186.162 20.1425C186.18 20.3125 186.202 20.4869 186.229 20.6659C186.265 20.8359 186.305 21.0014 186.35 21.1624C186.394 21.3234 186.452 21.4666 186.524 21.5918L190.791 15.9287Z" fill="#FAFAFA"/>
</svg>
