<svg width="41" height="41" viewBox="0 0 41 41" fill="none" xmlns="http://www.w3.org/2000/svg">
<path d="M18.4305 21.1377V27.3321C17.2675 27.0435 16.1914 26.4121 15.3934 25.5191C15.1388 25.2256 14.9063 24.9055 14.7182 24.5633C15.3053 22.9359 16.7464 21.6002 18.4305 21.1377Z" fill="#0A92A4"/>
<path d="M28.9601 14.8476C28.9601 15.3656 28.8984 15.8682 28.7751 16.3523C26.9035 13.9577 23.9941 12.4969 20.9157 12.2638C18.0679 11.9363 17.4358 16.1229 20.225 16.6729C19.6225 16.6538 19.0139 16.7173 18.4305 16.8641V16.8888C17.2286 17.1872 16.0847 17.8847 15.3163 18.8097V18.8128C14.7212 19.5127 14.3142 20.3483 14.157 21.2609V9.21125C14.157 8.52984 14.7089 7.97792 15.3903 7.97792C17.252 8.07905 22.3266 7.67822 24.0268 8.39109C26.8986 9.35555 28.9539 11.8592 28.9601 14.8476Z" fill="#0A92A4"/>
<path d="M30.7947 22.0967C30.6048 31.9542 17.2607 35.3126 11.3604 27.9983C7.54939 23.5965 9.14965 16.5843 14.157 13.8334C14.157 14.2441 14.1835 22.0234 14.083 22.1183C14.0781 23.372 14.5683 24.5887 15.3934 25.5193C18.1949 28.803 24.1976 27.9495 25.6609 23.808L25.6579 23.8049C26.0365 22.7831 26.0451 21.5485 25.6887 20.5181C25.6856 20.5181 25.6856 20.5212 25.6825 20.5212C25.4741 19.8878 25.1392 19.302 24.7051 18.7914V18.7883C23.6413 17.502 21.9128 16.7176 20.225 16.6732C17.4296 16.0972 18.0673 11.9408 20.9342 12.264C26.0889 12.5828 30.8459 16.7983 30.7947 22.0967Z" stroke="#0A92A4" stroke-width="0.246667" stroke-miterlimit="10"/>
<path d="M25.6363 20.3885C25.3545 20.5297 25.061 20.6531 24.7514 20.7493C23.7727 21.0699 22.6621 21.1384 21.6465 20.9528C20.5864 20.7332 19.4283 20.7937 18.4028 21.1285C16.7273 21.6539 15.304 22.9224 14.7182 24.5634C13.7408 22.8182 13.964 20.3077 15.3164 18.8129V18.8099C17.582 16.0201 22.4407 15.9929 24.7051 18.7883V18.7914C25.1091 19.2662 25.4266 19.8058 25.6363 20.3885Z" fill="#0A92A4" stroke="#0A6BE9" stroke-width="0.0925002" stroke-miterlimit="10"/>
</svg>
