<svg width="73" height="83" viewBox="0 0 73 83" fill="none" xmlns="http://www.w3.org/2000/svg">
<path d="M64.315 9.21635C65.9421 7.59123 68.58 7.59006 70.2067 9.21635L81.9904 21.0043C83.6171 22.6315 83.6175 25.2692 81.9904 26.8962L26.0092 82.8735H8.33338V65.1981L64.315 9.21635ZM16.6667 68.6485V74.5402H22.5586L61.365 35.7341L55.4729 29.8422L16.6667 68.6485ZM14.7054 1.3306C15.441 -0.443541 17.8924 -0.443529 18.628 1.3306L19.6818 3.87781C21.4815 8.22277 24.8398 11.6924 29.0609 13.5702L32.0516 14.9008C33.7611 15.6625 33.7609 18.1509 32.0516 18.9128L28.886 20.3207C24.7707 22.151 21.4725 25.4978 19.6411 29.6998L18.6117 32.0558C17.8598 33.7813 15.4736 33.7813 14.7217 32.0558L13.6923 29.6998C11.8609 25.4978 8.56275 22.151 4.44746 20.3207L1.28175 18.9128C-0.427151 18.1509 -0.427351 15.6625 1.28175 14.9008L4.2725 13.5702C8.49354 11.6924 11.8519 8.22285 13.6515 3.87781L14.7054 1.3306ZM61.365 23.9503L67.2608 29.8422L73.1529 23.9503L67.2608 18.0583L61.365 23.9503Z" fill="#FD6C01"/>
</svg>
