<svg width="16" height="16" viewBox="0 0 16 16" fill="none" xmlns="http://www.w3.org/2000/svg">
<g clip-path="url(#clip0_1401_44463)">
<path d="M11.8004 6.46705C11.9219 6.34131 11.9891 6.17291 11.9876 5.99812C11.986 5.82332 11.9159 5.65611 11.7923 5.5325C11.6687 5.4089 11.5015 5.33879 11.3267 5.33727C11.1519 5.33575 10.9835 5.40294 10.8578 5.52438L7.32444 9.05772L5.12444 6.85772C4.9987 6.73628 4.8303 6.66908 4.6555 6.6706C4.4807 6.67212 4.3135 6.74223 4.18989 6.86584C4.06629 6.98944 3.99617 7.15665 3.99465 7.33145C3.99314 7.50625 4.06033 7.67465 4.18177 7.80038L6.84844 10.467C6.97346 10.592 7.14299 10.6622 7.31977 10.6622C7.49655 10.6622 7.66609 10.592 7.7911 10.467L11.7911 6.46705H11.8004Z" fill="#065E69"/>
<path fill-rule="evenodd" clip-rule="evenodd" d="M16 8C16 12.4133 12.4133 16 8 16C3.58667 16 0 12.4133 0 8C0 3.58667 3.58667 0 8 0C12.4133 0 16 3.58667 16 8ZM14.6667 8C14.6667 11.68 11.68 14.6667 8 14.6667C4.32 14.6667 1.33333 11.68 1.33333 8C1.33333 4.32 4.32 1.33333 8 1.33333C11.68 1.33333 14.6667 4.32 14.6667 8Z" fill="#065E69"/>
</g>
<defs>
<clipPath id="clip0_1401_44463">
<rect width="16" height="16" fill="white"/>
</clipPath>
</defs>
</svg>
