<svg width="69" height="63" viewBox="0 0 69 63" fill="none" xmlns="http://www.w3.org/2000/svg">
<g filter="url(#filter0_d_1401_44449)">
<rect x="1.5" y="0.75" width="66" height="60" rx="9" fill="#F1F1F1"/>
<rect x="1.875" y="1.125" width="65.25" height="59.25" rx="8.625" stroke="white" stroke-width="0.75"/>
<rect width="30" height="30" transform="translate(19.5 15.75)" fill="#F1F1F1"/>
<path d="M34.4999 18.25L37.7831 20.645L41.8474 20.6375L43.0956 24.505L46.3881 26.8875L45.1249 30.75L46.3881 34.6125L43.0956 36.995L41.8474 40.8625L37.7831 40.855L34.4999 43.25L31.2168 40.855L27.1524 40.8625L25.9043 36.995L22.6118 34.6125L23.8749 30.75L22.6118 26.8875L25.9043 24.505L27.1524 20.6375L31.2168 20.645L34.4999 18.25Z" fill="#F1F1F1" stroke="#087583" stroke-width="1.5" stroke-linecap="round" stroke-linejoin="round"/>
<path d="M30.125 30.75L33.25 33.875L39.5 27.625" fill="#F1F1F1"/>
<path d="M30.125 30.75L33.25 33.875L39.5 27.625" stroke="#087583" stroke-width="1.5" stroke-linecap="round" stroke-linejoin="round"/>
</g>
<defs>
<filter id="filter0_d_1401_44449" x="0" y="0" width="69" height="63" filterUnits="userSpaceOnUse" color-interpolation-filters="sRGB">
<feFlood flood-opacity="0" result="BackgroundImageFix"/>
<feColorMatrix in="SourceAlpha" type="matrix" values="0 0 0 0 0 0 0 0 0 0 0 0 0 0 0 0 0 0 127 0" result="hardAlpha"/>
<feOffset dy="0.75"/>
<feGaussianBlur stdDeviation="0.75"/>
<feColorMatrix type="matrix" values="0 0 0 0 0 0 0 0 0 0 0 0 0 0 0 0 0 0 0.05 0"/>
<feBlend mode="normal" in2="BackgroundImageFix" result="effect1_dropShadow_1401_44449"/>
<feBlend mode="normal" in="SourceGraphic" in2="effect1_dropShadow_1401_44449" result="shape"/>
</filter>
</defs>
</svg>
