<svg width="166" height="31" viewBox="0 0 166 31" fill="none" xmlns="http://www.w3.org/2000/svg">
<path d="M11.6346 16.4854V24.2318C10.1802 23.8708 8.83448 23.0812 7.83661 21.9645C7.51812 21.5974 7.22739 21.1972 6.99219 20.7692C7.72633 18.7341 9.52853 17.0637 11.6346 16.4854Z" fill="#087583"/>
<path d="M24.8007 8.61939C24.8007 9.26718 24.7236 9.89568 24.5693 10.501C22.2289 7.5066 18.5906 5.6797 14.7409 5.38819C11.1797 4.9787 10.3893 10.2142 13.8773 10.9021C13.1238 10.8781 12.3627 10.9576 11.6332 11.1411V11.172C10.1302 11.5452 8.6997 12.4174 7.73884 13.5742V13.578C6.99467 14.4533 6.48571 15.4982 6.28906 16.6396V1.5709C6.28906 0.71876 6.97925 0.0285628 7.83138 0.0285628C10.1595 0.155035 16.5054 -0.346226 18.6314 0.545246C22.2227 1.75136 24.793 4.88231 24.8007 8.61939Z" fill="#087583"/>
<path d="M27.0945 17.6839C26.8569 30.011 10.1699 34.2108 2.79143 25.064C-1.97432 19.5594 0.0268324 10.7904 6.28863 7.35022C6.28863 7.86382 6.32179 17.5921 6.19609 17.7109C6.18992 19.2787 6.80299 20.8002 7.8348 21.9639C11.3382 26.0704 18.8446 25.0031 20.6746 19.8239L20.6707 19.82C21.1442 18.5422 21.155 16.9983 20.7093 15.7097C20.7054 15.7097 20.7054 15.7136 20.7016 15.7136C20.4409 14.9216 20.0222 14.189 19.4793 13.5504V13.5466C18.149 11.9379 15.9875 10.957 13.8768 10.9015C10.3812 10.1812 11.1785 4.9835 14.7636 5.38759C21.2098 5.78629 27.1585 11.058 27.0945 17.6839Z" stroke="#087583" stroke-width="0.305303" stroke-miterlimit="10"/>
<path d="M20.644 15.5483C20.2916 15.7249 19.9246 15.8792 19.5374 15.9995C18.3136 16.4005 16.9247 16.4861 15.6547 16.2539C14.329 15.9794 12.8808 16.055 11.5984 16.4737C9.50313 17.1308 7.7233 18.7171 6.9907 20.7691C5.76841 18.5867 6.04757 15.4473 7.73872 13.578V13.5741C10.572 10.0854 16.6479 10.0514 19.4796 13.5471V13.551C19.9847 14.1448 20.3818 14.8196 20.644 15.5483Z" fill="#087583" stroke="#087583" stroke-width="0.114489" stroke-miterlimit="10"/>
<path d="M48.8947 15.2708C48.8947 16.0579 48.7905 16.8179 48.5822 17.5509C48.3816 18.2762 48.0961 18.9591 47.7257 19.5995C47.3553 20.2322 46.9078 20.811 46.3831 21.3356C45.8584 21.8603 45.2797 22.3117 44.647 22.6898C44.0143 23.0602 43.3314 23.3457 42.5984 23.5463C41.8654 23.7546 41.1053 23.8588 40.3183 23.8588C39.5313 23.8588 38.7712 23.7546 38.0382 23.5463C37.3129 23.3457 36.63 23.0602 35.9896 22.6898C35.3569 22.3117 34.7782 21.8603 34.2535 21.3356C33.7288 20.811 33.2774 20.2322 32.8993 19.5995C32.5289 18.9591 32.2396 18.2762 32.0313 17.5509C31.8306 16.8179 31.7303 16.0579 31.7303 15.2708C31.7303 14.4838 31.8306 13.7238 32.0313 12.9907C32.2396 12.2577 32.5289 11.5748 32.8993 10.9421C33.2774 10.3094 33.7288 9.7307 34.2535 9.206C34.7782 8.68131 35.3569 8.23378 35.9896 7.86341C36.63 7.49304 37.3129 7.20755 38.0382 7.00693C38.7712 6.79859 39.5313 6.69443 40.3183 6.69443C41.1053 6.69443 41.8654 6.79859 42.5984 7.00693C43.3314 7.20755 44.0143 7.49304 44.647 7.86341C45.2797 8.23378 45.8584 8.68131 46.3831 9.206C46.9078 9.7307 47.3553 10.3094 47.7257 10.9421C48.0961 11.5748 48.3816 12.2577 48.5822 12.9907C48.7905 13.7238 48.8947 14.4838 48.8947 15.2708ZM45.5961 15.2708C45.5961 14.5455 45.4572 13.8626 45.1794 13.2222C44.9016 12.5741 44.5235 12.0146 44.0452 11.544C43.5745 11.0656 43.0151 10.6875 42.3669 10.4097C41.7265 10.1319 41.0436 9.99304 40.3183 9.99304C39.5853 9.99304 38.8985 10.1319 38.2581 10.4097C37.6177 10.6875 37.0583 11.0656 36.5799 11.544C36.1015 12.0146 35.7234 12.5741 35.4456 13.2222C35.1678 13.8626 35.0289 14.5455 35.0289 15.2708C35.0289 15.9961 35.1678 16.679 35.4456 17.3194C35.7234 17.9522 36.1015 18.5077 36.5799 18.9861C37.0583 19.4645 37.6177 19.8426 38.2581 20.1204C38.8985 20.3981 39.5853 20.537 40.3183 20.537C41.0436 20.537 41.7265 20.3981 42.3669 20.1204C43.0151 19.8426 43.5745 19.4645 44.0452 18.9861C44.5235 18.5077 44.9016 17.9522 45.1794 17.3194C45.4572 16.679 45.5961 15.9961 45.5961 15.2708ZM53.9294 28.2222H50.7465V11.1042H51.5104L52.772 12.5972C53.0575 12.3271 53.37 12.0725 53.7095 11.8333C54.049 11.5941 54.4001 11.3896 54.7628 11.2199C55.1331 11.0424 55.5151 10.9035 55.9086 10.8032C56.3021 10.7029 56.6995 10.6528 57.1007 10.6528C57.9726 10.6528 58.7905 10.8109 59.5544 11.1273C60.326 11.4359 60.9973 11.8758 61.5683 12.4467C62.147 13.0177 62.6023 13.7083 62.9341 14.5185C63.2659 15.321 63.4317 16.2122 63.4317 17.1921C63.4317 18.2106 63.2659 19.1289 62.9341 19.9468C62.6023 20.7569 62.147 21.4475 61.5683 22.0185C60.9973 22.5818 60.326 23.0139 59.5544 23.3148C58.7905 23.6157 57.9726 23.7662 57.1007 23.7662C56.8229 23.7662 56.5452 23.7353 56.2674 23.6736C55.9973 23.6119 55.7273 23.5309 55.4572 23.4306C55.1949 23.3225 54.9325 23.2029 54.6702 23.0718C54.4155 22.9406 54.1686 22.8056 53.9294 22.6667V28.2222ZM60.2604 17.1921C60.2604 16.6674 60.1756 16.1968 60.0058 15.7801C59.8438 15.3634 59.62 15.0123 59.3345 14.7268C59.049 14.4336 58.7134 14.2099 58.3276 14.0555C57.9418 13.9012 57.5328 13.8241 57.1007 13.8241C56.6686 13.8241 56.2597 13.9012 55.8739 14.0555C55.4958 14.2099 55.164 14.4336 54.8785 14.7268C54.593 15.0123 54.3654 15.3634 54.1956 15.7801C54.0336 16.1968 53.9526 16.6674 53.9526 17.1921C53.9526 17.6937 54.0336 18.1528 54.1956 18.5694C54.3654 18.9861 54.593 19.341 54.8785 19.6343C55.164 19.9275 55.4958 20.1551 55.8739 20.3171C56.2597 20.4792 56.6686 20.5602 57.1007 20.5602C57.5328 20.5602 57.9418 20.4792 58.3276 20.3171C58.7134 20.1551 59.049 19.9275 59.3345 19.6343C59.62 19.341 59.8438 18.9861 60.0058 18.5694C60.1756 18.1528 60.2604 17.6937 60.2604 17.1921ZM70.1216 20.4676C70.245 20.5062 70.3685 20.5332 70.4919 20.5486C70.6154 20.5563 70.7389 20.5602 70.8623 20.5602C71.171 20.5602 71.468 20.5177 71.7535 20.4329C72.039 20.348 72.3052 20.2284 72.5521 20.0741C72.8068 19.912 73.0305 19.7191 73.2234 19.4954C73.424 19.2639 73.5861 19.0093 73.7095 18.7315L76.0244 21.0579C75.7311 21.4745 75.3916 21.8488 75.0058 22.1806C74.6277 22.5123 74.2149 22.794 73.7674 23.0255C73.3276 23.2569 72.8608 23.4306 72.3669 23.5463C71.8808 23.6698 71.3793 23.7315 70.8623 23.7315C69.9904 23.7315 69.1686 23.5694 68.397 23.2454C67.6331 22.9213 66.9618 22.4699 66.3831 21.8912C65.8121 21.3125 65.3608 20.6258 65.029 19.831C64.6972 19.0285 64.5313 18.1489 64.5313 17.1921C64.5313 16.2122 64.6972 15.3171 65.029 14.5069C65.3608 13.6967 65.8121 13.0062 66.3831 12.4352C66.9618 11.8642 67.6331 11.4205 68.397 11.1042C69.1686 10.7878 69.9904 10.6296 70.8623 10.6296C71.3793 10.6296 71.8847 10.6913 72.3785 10.8148C72.8723 10.9383 73.3392 11.1157 73.779 11.3472C74.2265 11.5787 74.6432 11.8642 75.029 12.2037C75.4148 12.5355 75.7543 12.9097 76.0475 13.3264L70.1216 20.4676ZM71.7419 13.9514C71.5953 13.8974 71.4487 13.8626 71.3021 13.8472C71.1632 13.8318 71.0166 13.8241 70.8623 13.8241C70.4302 13.8241 70.0213 13.9051 69.6355 14.0671C69.2574 14.2214 68.9256 14.4452 68.6401 14.7384C68.3623 15.0316 68.1424 15.3866 67.9804 15.8032C67.8183 16.2122 67.7373 16.6751 67.7373 17.1921C67.7373 17.3079 67.7412 17.439 67.7489 17.5856C67.7643 17.7322 67.7836 17.8827 67.8067 18.037C67.8376 18.1836 67.8723 18.3264 67.9109 18.4653C67.9495 18.6042 67.9997 18.7276 68.0614 18.8356L71.7419 13.9514ZM80.8044 23.5H77.6447V11.1042H78.4086L79.4503 12.3079C79.9595 11.8449 80.5344 11.49 81.1748 11.243C81.823 10.9884 82.4981 10.8611 83.2003 10.8611C83.9565 10.8611 84.6702 11.0077 85.3415 11.3009C86.0128 11.5864 86.5992 11.9838 87.1008 12.493C87.6023 12.9946 87.9958 13.5849 88.2813 14.2639C88.5745 14.9352 88.7211 15.6528 88.7211 16.4167V23.5H85.5614V16.4167C85.5614 16.0926 85.4997 15.7878 85.3762 15.5023C85.2528 15.2091 85.083 14.9545 84.867 14.7384C84.6509 14.5224 84.4001 14.3526 84.1146 14.2292C83.8291 14.1057 83.5244 14.044 83.2003 14.044C82.8685 14.044 82.556 14.1057 82.2628 14.2292C81.9696 14.3526 81.7149 14.5224 81.4989 14.7384C81.2828 14.9545 81.1131 15.2091 80.9896 15.5023C80.8662 15.7878 80.8044 16.0926 80.8044 16.4167V23.5Z" fill="#087583"/>
<path d="M94.3348 22.3194C94.3348 22.5972 94.2846 22.8596 94.1843 23.1065C94.084 23.3457 93.9451 23.554 93.7677 23.7315C93.5902 23.909 93.3819 24.0478 93.1427 24.1481C92.9035 24.2562 92.645 24.3102 92.3672 24.3102C92.0971 24.3102 91.8386 24.2562 91.5917 24.1481C91.3525 24.0478 91.1403 23.909 90.9552 23.7315C90.7777 23.554 90.6349 23.3457 90.5269 23.1065C90.4266 22.8596 90.3764 22.5972 90.3764 22.3194C90.3764 22.0494 90.4266 21.7948 90.5269 21.5556C90.6349 21.3164 90.7777 21.108 90.9552 20.9306C91.1403 20.7531 91.3525 20.6142 91.5917 20.5139C91.8386 20.4059 92.0971 20.3518 92.3672 20.3518C92.645 20.3518 92.9035 20.4059 93.1427 20.5139C93.3819 20.6142 93.5902 20.7531 93.7677 20.9306C93.9451 21.108 94.084 21.3164 94.1843 21.5556C94.2846 21.7948 94.3348 22.0494 94.3348 22.3194Z" fill="#087583"/>
<path d="M99.2869 10.2245V16.868H102.609C103.064 16.868 103.492 16.7832 103.893 16.6134C104.295 16.4359 104.646 16.1968 104.947 15.8958C105.248 15.5949 105.483 15.2438 105.653 14.8426C105.83 14.4336 105.919 14.0015 105.919 13.5463C105.919 13.091 105.83 12.6628 105.653 12.2616C105.483 11.8526 105.248 11.4977 104.947 11.1967C104.646 10.8958 104.295 10.6605 103.893 10.4907C103.492 10.3133 103.064 10.2245 102.609 10.2245H99.2869ZM99.2869 23.5H95.9651V6.90276H102.609C103.218 6.90276 103.805 6.98378 104.368 7.14582C104.931 7.30014 105.456 7.5239 105.942 7.81711C106.436 8.10261 106.883 8.44983 107.285 8.85878C107.694 9.26002 108.041 9.70755 108.326 10.2014C108.619 10.6952 108.843 11.2238 108.998 11.787C109.16 12.3503 109.241 12.9367 109.241 13.5463C109.241 14.4568 109.067 15.3171 108.72 16.1273C108.373 16.9298 107.898 17.6319 107.296 18.2338C106.694 18.8356 105.988 19.3102 105.178 19.6574C104.376 20.0046 103.519 20.1782 102.609 20.1782H99.2869V23.5ZM114.021 23.5H110.861V11.1042H111.625L112.667 12.5741C113.176 12.1111 113.755 11.7562 114.403 11.5092C115.051 11.2546 115.722 11.1273 116.417 11.1273H119.206V14.2755H116.417C116.085 14.2755 115.772 14.3372 115.479 14.4606C115.186 14.5841 114.931 14.7538 114.715 14.9699C114.499 15.1859 114.329 15.4406 114.206 15.7338C114.082 16.027 114.021 16.3395 114.021 16.6713V23.5ZM132.424 17.1921C132.424 18.1181 132.258 18.9822 131.926 19.7847C131.594 20.5795 131.143 21.2701 130.572 21.8565C130.001 22.4352 129.329 22.8943 128.558 23.2338C127.794 23.5656 126.972 23.7315 126.092 23.7315C125.221 23.7315 124.399 23.5656 123.627 23.2338C122.863 22.8943 122.192 22.4352 121.613 21.8565C121.042 21.2701 120.591 20.5795 120.259 19.7847C119.927 18.9822 119.761 18.1181 119.761 17.1921C119.761 16.2508 119.927 15.3788 120.259 14.5764C120.591 13.7739 121.042 13.0833 121.613 12.5046C122.192 11.9182 122.863 11.4591 123.627 11.1273C124.399 10.7955 125.221 10.6296 126.092 10.6296C126.972 10.6296 127.794 10.7878 128.558 11.1042C129.329 11.4128 130.001 11.8565 130.572 12.4352C131.143 13.0062 131.594 13.6967 131.926 14.5069C132.258 15.3094 132.424 16.2045 132.424 17.1921ZM129.241 17.1921C129.241 16.6829 129.156 16.2238 128.986 15.8148C128.824 15.3981 128.6 15.0432 128.315 14.75C128.029 14.4491 127.694 14.2214 127.308 14.0671C126.93 13.9051 126.525 13.8241 126.092 13.8241C125.66 13.8241 125.251 13.9051 124.866 14.0671C124.488 14.2214 124.156 14.4491 123.87 14.75C123.592 15.0432 123.373 15.3981 123.211 15.8148C123.048 16.2238 122.967 16.6829 122.967 17.1921C122.967 17.6705 123.048 18.1142 123.211 18.5231C123.373 18.9321 123.592 19.287 123.87 19.588C124.156 19.8889 124.488 20.1281 124.866 20.3056C125.251 20.4753 125.66 20.5602 126.092 20.5602C126.525 20.5602 126.93 20.4792 127.308 20.3171C127.694 20.1551 128.029 19.9275 128.315 19.6343C128.6 19.341 128.824 18.9861 128.986 18.5694C129.156 18.1528 129.241 17.6937 129.241 17.1921ZM138.049 23.5H134.889V14.2523H133.349V11.1042H134.889V10.5139C134.889 9.74999 135.032 9.03239 135.317 8.3611C135.61 7.6898 136.008 7.10724 136.509 6.61341C137.018 6.11187 137.609 5.71835 138.28 5.43285C138.951 5.13964 139.669 4.99304 140.433 4.99304H142.805V8.14119H140.433C140.093 8.14119 139.777 8.20292 139.484 8.32637C139.198 8.44211 138.947 8.60801 138.731 8.82406C138.523 9.03239 138.357 9.28316 138.234 9.57637C138.11 9.86187 138.049 10.1744 138.049 10.5139V11.1042H141.926V14.2523H138.049V23.5ZM147.62 7.7361C147.62 8.02931 147.562 8.30323 147.447 8.55786C147.339 8.81249 147.188 9.03625 146.995 9.22915C146.802 9.41434 146.575 9.5648 146.312 9.68054C146.058 9.78857 145.784 9.84258 145.491 9.84258C145.197 9.84258 144.92 9.78857 144.657 9.68054C144.403 9.5648 144.179 9.41434 143.986 9.22915C143.801 9.03625 143.65 8.81249 143.535 8.55786C143.427 8.30323 143.373 8.02931 143.373 7.7361C143.373 7.4506 143.427 7.18054 143.535 6.92591C143.65 6.66356 143.801 6.4398 143.986 6.25461C144.179 6.06171 144.403 5.91125 144.657 5.80322C144.92 5.68748 145.197 5.62961 145.491 5.62961C145.784 5.62961 146.058 5.68748 146.312 5.80322C146.575 5.91125 146.802 6.06171 146.995 6.25461C147.188 6.4398 147.339 6.66356 147.447 6.92591C147.562 7.18054 147.62 7.4506 147.62 7.7361ZM147.076 23.5H143.893V11.1042H147.076V23.5ZM152.678 23.5H149.495V6.17359H152.678V23.5ZM160.028 20.4676C160.151 20.5062 160.275 20.5332 160.398 20.5486C160.522 20.5563 160.645 20.5602 160.768 20.5602C161.077 20.5602 161.374 20.5177 161.66 20.4329C161.945 20.348 162.211 20.2284 162.458 20.0741C162.713 19.912 162.937 19.7191 163.13 19.4954C163.33 19.2639 163.492 19.0093 163.616 18.7315L165.93 21.0579C165.637 21.4745 165.298 21.8488 164.912 22.1806C164.534 22.5123 164.121 22.794 163.674 23.0255C163.234 23.2569 162.767 23.4306 162.273 23.5463C161.787 23.6698 161.285 23.7315 160.768 23.7315C159.897 23.7315 159.075 23.5694 158.303 23.2454C157.539 22.9213 156.868 22.4699 156.289 21.8912C155.718 21.3125 155.267 20.6258 154.935 19.831C154.603 19.0285 154.437 18.1489 154.437 17.1921C154.437 16.2122 154.603 15.3171 154.935 14.5069C155.267 13.6967 155.718 13.0062 156.289 12.4352C156.868 11.8642 157.539 11.4205 158.303 11.1042C159.075 10.7878 159.897 10.6296 160.768 10.6296C161.285 10.6296 161.791 10.6913 162.285 10.8148C162.778 10.9383 163.245 11.1157 163.685 11.3472C164.133 11.5787 164.549 11.8642 164.935 12.2037C165.321 12.5355 165.66 12.9097 165.954 13.3264L160.028 20.4676ZM161.648 13.9514C161.501 13.8974 161.355 13.8626 161.208 13.8472C161.069 13.8318 160.923 13.8241 160.768 13.8241C160.336 13.8241 159.927 13.9051 159.542 14.0671C159.163 14.2214 158.832 14.4452 158.546 14.7384C158.268 15.0316 158.049 15.3866 157.886 15.8032C157.724 16.2122 157.643 16.6751 157.643 17.1921C157.643 17.3079 157.647 17.439 157.655 17.5856C157.67 17.7322 157.69 17.8827 157.713 18.037C157.744 18.1836 157.778 18.3264 157.817 18.4653C157.856 18.6042 157.906 18.7276 157.968 18.8356L161.648 13.9514Z" fill="#087583"/>
</svg>
