<svg width="16" height="16" viewBox="0 0 16 16" fill="none" xmlns="http://www.w3.org/2000/svg">
<path d="M2.66683 13.3333C2.30016 13.3333 1.98639 13.2029 1.7255 12.942C1.46461 12.6811 1.33394 12.3671 1.3335 12V4C1.3335 3.63333 1.46416 3.31955 1.7255 3.05866C1.98683 2.79778 2.30061 2.66711 2.66683 2.66666H13.3335C13.7002 2.66666 14.0142 2.79733 14.2755 3.05866C14.5368 3.32 14.6673 3.63378 14.6668 4V12C14.6668 12.3667 14.5364 12.6807 14.2755 12.942C14.0146 13.2033 13.7006 13.3338 13.3335 13.3333H2.66683ZM8.00016 8.66666L2.66683 5.33333V12H13.3335V5.33333L8.00016 8.66666ZM8.00016 7.33333L13.3335 4H2.66683L8.00016 7.33333ZM2.66683 5.33333V4V12V5.33333Z" fill="#065E69"/>
</svg>
