<svg width="40" height="40" viewBox="0 0 40 40" fill="none" xmlns="http://www.w3.org/2000/svg">
<rect width="40" height="40" rx="8" fill="#FEF08A"/>
<path d="M21.1202 25.0228L16.9213 22.7324C16.1914 23.5125 15.1526 24 14 24C11.7909 24 10 22.2091 10 20C10 17.7909 11.7909 16 14 16C15.1525 16 16.1912 16.4875 16.9212 17.2675L21.1202 14.9771C21.0417 14.6644 21 14.3371 21 14C21 11.7909 22.7909 10 25 10C27.2091 10 29 11.7909 29 14C29 16.2091 27.2091 18 25 18C23.8474 18 22.8087 17.5125 22.0787 16.7325L17.8798 19.0228C17.9583 19.3355 18 19.6629 18 20C18 20.3371 17.9583 20.6644 17.8798 20.9771L22.0788 23.2675C22.8087 22.4875 23.8474 22 25 22C27.2091 22 29 23.7909 29 26C29 28.2091 27.2091 30 25 30C22.7909 30 21 28.2091 21 26C21 25.6629 21.0417 25.3355 21.1202 25.0228ZM14 22C15.1046 22 16 21.1046 16 20C16 18.8954 15.1046 18 14 18C12.8954 18 12 18.8954 12 20C12 21.1046 12.8954 22 14 22ZM25 16C26.1046 16 27 15.1046 27 14C27 12.8954 26.1046 12 25 12C23.8954 12 23 12.8954 23 14C23 15.1046 23.8954 16 25 16ZM25 28C26.1046 28 27 27.1046 27 26C27 24.8954 26.1046 24 25 24C23.8954 24 23 24.8954 23 26C23 27.1046 23.8954 28 25 28Z" fill="black"/>
</svg>
