<svg width="140" height="98" viewBox="0 0 140 98" fill="none" xmlns="http://www.w3.org/2000/svg">
<path d="M32.8125 97.0833C27.3264 97.0833 22.5347 95.7291 18.4375 93.0208C14.3403 90.243 10.9028 86.5624 8.125 81.9791C5.41667 77.3263 3.36806 72.1527 1.97917 66.4583C0.659722 60.6944 1.86265e-07 54.861 1.86265e-07 48.9583C1.86265e-07 43.0555 0.659722 37.2569 1.97917 31.5624C3.36806 25.7985 5.41667 20.6249 8.125 16.0416C10.9028 11.3888 14.3403 7.70825 18.4375 4.99991C22.5347 2.22214 27.3264 0.833253 32.8125 0.833253C38.2986 0.833253 43.0903 2.22214 47.1875 4.99991C51.2847 7.70825 54.6875 11.3888 57.3958 16.0416C60.1736 20.6249 62.2222 25.7985 63.5417 31.5624C64.9306 37.2569 65.625 43.0555 65.625 48.9583C65.625 54.861 64.9306 60.6944 63.5417 66.4583C62.2222 72.1527 60.1736 77.3263 57.3958 81.9791C54.6875 86.5624 51.2847 90.243 47.1875 93.0208C43.0903 95.7291 38.2986 97.0833 32.8125 97.0833ZM32.8125 86.4583C36.4931 86.4583 39.6528 85.3471 42.2917 83.1249C44.9306 80.9027 47.0833 77.9513 48.75 74.2708C50.4167 70.5902 51.6667 66.5624 52.5 62.1874C53.3333 57.743 53.75 53.3333 53.75 48.9583C53.75 44.5833 53.3333 40.2082 52.5 35.8333C51.6667 31.3888 50.4167 27.3263 48.75 23.6457C47.0833 19.9652 44.9306 17.0138 42.2917 14.7916C39.6528 12.5694 36.4931 11.4583 32.8125 11.4583C29.2014 11.4583 26.0417 12.5694 23.3333 14.7916C20.6944 17.0138 18.5417 19.9652 16.875 23.6457C15.2083 27.3263 13.9583 31.3888 13.125 35.8333C12.2917 40.2082 11.875 44.5833 11.875 48.9583C11.875 53.3333 12.2917 57.743 13.125 62.1874C13.9583 66.5624 15.2083 70.5902 16.875 74.2708C18.5417 77.9513 20.6944 80.9027 23.3333 83.1249C26.0417 85.3471 29.2014 86.4583 32.8125 86.4583ZM88.7012 95.8333V86.4583H110.368V16.8749L88.7012 27.9166V16.6666L121.826 -8.23736e-05V86.4583H139.326V95.8333H88.7012Z" fill="url(#paint0_linear_5871_50953)"/>
<defs>
<linearGradient id="paint0_linear_5871_50953" x1="80.7579" y1="-3.16675" x2="79.6189" y2="86.8206" gradientUnits="userSpaceOnUse">
<stop offset="0.112935" stop-color="#D9D9D9"/>
<stop offset="0.939036" stop-color="#F4F5F7"/>
</linearGradient>
</defs>
</svg>
