<svg width="140" height="97" viewBox="0 0 140 97" fill="none" xmlns="http://www.w3.org/2000/svg">
<path d="M32.8125 96.25C27.3264 96.25 22.5347 94.8958 18.4375 92.1875C14.3403 89.4097 10.9028 85.7292 8.125 81.1458C5.41667 76.4931 3.36806 71.3194 1.97917 65.625C0.659722 59.8611 1.86265e-07 54.0278 1.86265e-07 48.125C1.86265e-07 42.2222 0.659722 36.4236 1.97917 30.7292C3.36806 24.9653 5.41667 19.7917 8.125 15.2083C10.9028 10.5556 14.3403 6.87499 18.4375 4.16666C22.5347 1.38889 27.3264 1.19209e-06 32.8125 1.19209e-06C38.2986 1.19209e-06 43.0903 1.38889 47.1875 4.16666C51.2847 6.87499 54.6875 10.5556 57.3958 15.2083C60.1736 19.7917 62.2222 24.9653 63.5417 30.7292C64.9306 36.4236 65.625 42.2222 65.625 48.125C65.625 54.0278 64.9306 59.8611 63.5417 65.625C62.2222 71.3194 60.1736 76.4931 57.3958 81.1458C54.6875 85.7292 51.2847 89.4097 47.1875 92.1875C43.0903 94.8958 38.2986 96.25 32.8125 96.25ZM32.8125 85.625C36.4931 85.625 39.6528 84.5139 42.2917 82.2917C44.9306 80.0694 47.0833 77.1181 48.75 73.4375C50.4167 69.7569 51.6667 65.7292 52.5 61.3542C53.3333 56.9097 53.75 52.5 53.75 48.125C53.75 43.75 53.3333 39.375 52.5 35C51.6667 30.5556 50.4167 26.4931 48.75 22.8125C47.0833 19.1319 44.9306 16.1806 42.2917 13.9583C39.6528 11.7361 36.4931 10.625 32.8125 10.625C29.2014 10.625 26.0417 11.7361 23.3333 13.9583C20.6944 16.1806 18.5417 19.1319 16.875 22.8125C15.2083 26.4931 13.9583 30.5556 13.125 35C12.2917 39.375 11.875 43.75 11.875 48.125C11.875 52.5 12.2917 56.9097 13.125 61.3542C13.9583 65.7292 15.2083 69.7569 16.875 73.4375C18.5417 77.1181 20.6944 80.0694 23.3333 82.2917C26.0417 84.5139 29.2014 85.625 32.8125 85.625ZM107.451 96.25C101.479 96.25 95.9928 94.8611 90.9928 92.0833C86.0623 89.3056 82.1734 85.4861 79.3262 80.625L86.2012 66.9792C86.9651 72.3264 89.3262 76.7708 93.2845 80.3125C97.3123 83.8542 102.035 85.625 107.451 85.625C111.41 85.625 114.986 84.6875 118.18 82.8125C121.444 80.8681 124.014 78.2986 125.889 75.1042C127.764 71.9097 128.701 68.3333 128.701 64.375C128.701 60.4861 127.729 56.9444 125.785 53.75C123.91 50.4861 121.375 47.9167 118.18 46.0417C114.986 44.0972 111.41 43.125 107.451 43.125C105.507 43.125 103.666 43.3681 101.93 43.8542C100.264 44.3403 98.7359 44.9653 97.347 45.7292L115.16 11.25H86.2012V1.25H132.451L114.847 34.0625C119.5 34.9653 123.701 36.8403 127.451 39.6875C131.271 42.5347 134.291 46.0764 136.514 50.3125C138.805 54.4792 139.951 59.1667 139.951 64.375C139.951 70.3472 138.493 75.7639 135.576 80.625C132.66 85.4167 128.736 89.2361 123.805 92.0833C118.875 94.8611 113.423 96.25 107.451 96.25Z" fill="url(#paint0_linear_5871_50963)"/>
<defs>
<linearGradient id="paint0_linear_5871_50963" x1="80.7579" y1="-4" x2="79.6189" y2="85.9873" gradientUnits="userSpaceOnUse">
<stop offset="0.112935" stop-color="#D9D9D9"/>
<stop offset="0.929688" stop-color="#F4F5F7"/>
</linearGradient>
</defs>
</svg>
