<svg width="140" height="97" viewBox="0 0 140 97" fill="none" xmlns="http://www.w3.org/2000/svg">
<path d="M32.8125 96.25C27.3264 96.25 22.5347 94.8958 18.4375 92.1875C14.3403 89.4097 10.9028 85.7292 8.125 81.1458C5.41667 76.4931 3.36806 71.3194 1.97917 65.625C0.659722 59.8611 1.86265e-07 54.0278 1.86265e-07 48.125C1.86265e-07 42.2222 0.659722 36.4236 1.97917 30.7292C3.36806 24.9653 5.41667 19.7917 8.125 15.2083C10.9028 10.5556 14.3403 6.87499 18.4375 4.16666C22.5347 1.38889 27.3264 1.19209e-06 32.8125 1.19209e-06C38.2986 1.19209e-06 43.0903 1.38889 47.1875 4.16666C51.2847 6.87499 54.6875 10.5556 57.3958 15.2083C60.1736 19.7917 62.2222 24.9653 63.5417 30.7292C64.9306 36.4236 65.625 42.2222 65.625 48.125C65.625 54.0278 64.9306 59.8611 63.5417 65.625C62.2222 71.3194 60.1736 76.4931 57.3958 81.1458C54.6875 85.7292 51.2847 89.4097 47.1875 92.1875C43.0903 94.8958 38.2986 96.25 32.8125 96.25ZM32.8125 85.625C36.4931 85.625 39.6528 84.5139 42.2917 82.2917C44.9306 80.0694 47.0833 77.1181 48.75 73.4375C50.4167 69.7569 51.6667 65.7292 52.5 61.3542C53.3333 56.9097 53.75 52.5 53.75 48.125C53.75 43.75 53.3333 39.375 52.5 35C51.6667 30.5556 50.4167 26.4931 48.75 22.8125C47.0833 19.1319 44.9306 16.1806 42.2917 13.9583C39.6528 11.7361 36.4931 10.625 32.8125 10.625C29.2014 10.625 26.0417 11.7361 23.3333 13.9583C20.6944 16.1806 18.5417 19.1319 16.875 22.8125C15.2083 26.4931 13.9583 30.5556 13.125 35C12.2917 39.375 11.875 43.75 11.875 48.125C11.875 52.5 12.2917 56.9097 13.125 61.3542C13.9583 65.7292 15.2083 69.7569 16.875 73.4375C18.5417 77.1181 20.6944 80.0694 23.3333 82.2917C26.0417 84.5139 29.2014 85.625 32.8125 85.625ZM84.222 95L121.826 39.0625C123.562 36.4236 124.743 34.1319 125.368 32.1875C126.062 30.2431 126.41 28.4375 126.41 26.7708C126.41 22.2569 124.812 18.4375 121.618 15.3125C118.423 12.1875 114.535 10.625 109.951 10.625C105.368 10.625 101.479 12.1875 98.2845 15.3125C95.1595 18.4375 93.597 22.2569 93.597 26.7708C93.597 31.7708 95.7151 35.9722 99.9512 39.375H85.6803C83.4581 35.1389 82.347 30.9375 82.347 26.7708C82.347 21.7014 83.597 17.1528 86.097 13.125C88.597 9.09722 91.9303 5.90277 96.097 3.54166C100.333 1.18055 104.986 1.19209e-06 110.055 1.19209e-06C115.125 1.19209e-06 119.743 1.18055 123.91 3.54166C128.076 5.90277 131.41 9.09722 133.91 13.125C136.41 17.1528 137.66 21.7014 137.66 26.7708C137.66 29.7569 137.173 32.7083 136.201 35.625C135.229 38.4722 133.528 41.6319 131.097 45.1042L104.014 84.375H139.43V95H84.222Z" fill="url(#paint0_linear_5871_50958)"/>
<defs>
<linearGradient id="paint0_linear_5871_50958" x1="80.7579" y1="-4.00001" x2="79.3735" y2="107.485" gradientUnits="userSpaceOnUse">
<stop offset="0.112935" stop-color="#D9D9D9"/>
<stop offset="0.968326" stop-color="#F4F5F7"/>
</linearGradient>
</defs>
</svg>
