<svg width="43" height="43" viewBox="0 0 43 43" fill="none" xmlns="http://www.w3.org/2000/svg">
<rect x="0.236894" y="0.236894" width="42.4777" height="42.4777" rx="5.44856" fill="#087583"/>
<rect x="0.236894" y="0.236894" width="42.4777" height="42.4777" rx="5.44856" stroke="#FEFEFE" stroke-width="0.473788"/>
<g clip-path="url(#clip0_5871_50964)">
<path fill-rule="evenodd" clip-rule="evenodd" d="M13.9461 24.2115C14.6865 23.4711 15.6907 23.0551 16.7379 23.0551H21.4758C22.5229 23.0551 23.5271 23.4711 24.2676 24.2115C25.008 24.952 25.424 25.9562 25.424 27.0033V28.5826C25.424 29.0187 25.0705 29.3723 24.6343 29.3723C24.1982 29.3723 23.8447 29.0187 23.8447 28.5826V27.0033C23.8447 26.3751 23.5951 25.7725 23.1509 25.3282C22.7066 24.884 22.104 24.6344 21.4758 24.6344H16.7379C16.1096 24.6344 15.507 24.884 15.0628 25.3282C14.6185 25.7725 14.3689 26.3751 14.3689 27.0033V28.5826C14.3689 29.0187 14.0154 29.3723 13.5793 29.3723C13.1432 29.3723 12.7896 29.0187 12.7896 28.5826V27.0033C12.7896 25.9562 13.2056 24.952 13.9461 24.2115Z" fill="#FEFEFE"/>
<path fill-rule="evenodd" clip-rule="evenodd" d="M19.1068 15.1586C17.7985 15.1586 16.7379 16.2192 16.7379 17.5276C16.7379 18.8359 17.7985 19.8965 19.1068 19.8965C20.4151 19.8965 21.4758 18.8359 21.4758 17.5276C21.4758 16.2192 20.4151 15.1586 19.1068 15.1586ZM15.1586 17.5276C15.1586 15.347 16.9263 13.5793 19.1068 13.5793C21.2874 13.5793 23.055 15.347 23.055 17.5276C23.055 19.7081 21.2874 21.4758 19.1068 21.4758C16.9263 21.4758 15.1586 19.7081 15.1586 17.5276Z" fill="#FEFEFE"/>
<path fill-rule="evenodd" clip-rule="evenodd" d="M27.0033 17.5276C27.4394 17.5276 27.7929 17.8811 27.7929 18.3172V23.0551C27.7929 23.4912 27.4394 23.8448 27.0033 23.8448C26.5672 23.8448 26.2136 23.4912 26.2136 23.0551V18.3172C26.2136 17.8811 26.5672 17.5276 27.0033 17.5276Z" fill="#FEFEFE"/>
<path fill-rule="evenodd" clip-rule="evenodd" d="M23.8447 20.6862C23.8447 20.2501 24.1982 19.8965 24.6343 19.8965H29.3722C29.8083 19.8965 30.1619 20.2501 30.1619 20.6862C30.1619 21.1223 29.8083 21.4758 29.3722 21.4758H24.6343C24.1982 21.4758 23.8447 21.1223 23.8447 20.6862Z" fill="#FEFEFE"/>
</g>
<defs>
<clipPath id="clip0_5871_50964">
<rect width="18.9515" height="18.9515" fill="white" transform="translate(12 12)"/>
</clipPath>
</defs>
</svg>
