<svg width="232" height="525" viewBox="0 0 232 525" fill="none" xmlns="http://www.w3.org/2000/svg">
<g opacity="0.35">
<circle cx="265.785" cy="258.785" r="200" transform="rotate(-25 265.785 258.785)" fill="#C3E2E5"/>
<circle cx="265.783" cy="258.785" r="163.529" transform="rotate(-25 265.783 258.785)" fill="#94C7CD"/>
<circle cx="265.263" cy="258.595" r="125.49" transform="rotate(-25 265.263 258.595)" fill="#DBEFF2"/>
<g opacity="0.6">
<path d="M292.556 214.466C293.621 216.751 294.383 219.095 294.834 221.483C281.655 214.771 265.818 214.312 251.761 219.615C238.527 224.028 244.35 243.793 257.783 240.482C255.086 241.637 252.533 243.169 250.261 245.016L250.312 245.125C245.625 248.913 242.014 254.342 240.528 260.002L240.534 260.016C239.349 264.327 239.272 268.849 240.456 273.198L215.673 220.052C214.272 217.047 215.571 213.477 218.577 212.076C226.996 208.693 248.553 196.488 257.518 196.136C272.168 194.483 286.382 201.299 292.556 214.466Z" fill="#087583"/>
<path d="M315.557 242.666C334.993 286.533 283.045 328.79 241.979 308.665C216.117 297.089 208.753 262.87 225.181 240.438C226.025 242.25 242.142 276.506 241.894 277.132C244.45 282.671 249.115 287.029 254.668 289.436C273.778 298.158 298.498 282.048 296.434 260.772L296.414 260.765C295.982 255.479 293.481 250.016 289.79 246.204C289.776 246.211 289.783 246.224 289.769 246.231C287.547 243.866 284.866 241.971 281.901 240.612L281.894 240.598C274.557 237.112 265.32 237.208 257.784 240.483C244.271 243.692 238.535 224.049 251.844 219.578C275.235 210.382 304.886 219.191 315.557 242.666Z" stroke="#087583" stroke-width="1.1603" stroke-miterlimit="10"/>
<path d="M289.292 245.739C288.339 246.942 287.298 248.089 286.131 249.15C282.474 252.578 277.716 255.164 272.855 256.434C267.728 257.646 262.744 260.294 258.91 263.88C252.6 269.643 248.932 278.165 249.723 286.608C241.823 280.921 237.644 269.389 240.534 260.015L240.528 260.001C244.783 243.037 266.157 232.924 281.893 240.596L281.9 240.61C284.658 241.874 287.168 243.6 289.292 245.739Z" fill="#087583" stroke="#087583" stroke-width="0.435114" stroke-miterlimit="10"/>
</g>
</g>
</svg>
