<svg width="279" height="388" viewBox="0 0 279 388" fill="none" xmlns="http://www.w3.org/2000/svg">
<g opacity="0.35">
<circle cx="12.7848" cy="265.785" r="200" transform="rotate(25 12.7848 265.785)" fill="#C3E2E5"/>
<circle cx="12.7811" cy="265.783" r="163.529" transform="rotate(25 12.7811 265.783)" fill="#94C7CD"/>
<circle cx="12.5967" cy="265.263" r="125.49" transform="rotate(25 12.5967 265.263)" fill="#DBEFF2"/>
<g opacity="0.6">
<path d="M4.56883 263.891L-8.17113 291.212C-12.7072 287.547 -16.1546 282.549 -17.8376 276.969C-18.3572 275.151 -18.7244 273.261 -18.85 271.365C-12.9137 265.394 -3.81031 262.467 4.56883 263.891Z" fill="#087583"/>
<path d="M63.9503 257.804C62.8849 260.089 61.5793 262.179 60.0397 264.06C56.7097 249.65 46.882 237.223 33.7839 229.863C21.8971 222.562 10.4989 239.727 21.6694 247.89C19.0515 246.566 16.2363 245.595 13.3615 245.042L13.3108 245.151C7.39593 243.995 0.916172 244.719 -4.3752 247.218L-4.38154 247.232C-8.4457 249.095 -11.9593 251.943 -14.53 255.645L10.2524 202.499C11.6538 199.494 15.2232 198.195 18.2287 199.596C26.2319 203.871 49.4379 212.54 55.4704 219.181C66.1532 229.341 70.0692 244.611 63.9503 257.804Z" fill="#087583"/>
<path d="M57.1317 293.55C36.0204 336.637 -29.7416 324.004 -40.722 279.609C-48.4776 252.357 -26.9979 224.721 0.745146 222.886C-0.0995334 224.697 -15.982 259.063 -16.6207 259.275C-19.2209 264.794 -19.5609 271.169 -17.8356 276.97C-12.233 297.215 15.9974 305.796 30.9694 290.539L30.9622 290.52C34.7337 286.791 37.3109 281.364 37.8581 276.086C37.8445 276.08 37.8382 276.093 37.8246 276.087C38.2078 272.865 37.9358 269.593 37.0712 266.448L37.0775 266.434C35.0314 258.573 29.0209 251.558 21.668 247.891C10.5235 239.601 21.8841 222.581 33.8641 229.902C55.9437 241.91 68.2546 270.287 57.1317 293.55Z" stroke="#087583" stroke-width="1.1603" stroke-miterlimit="10"/>
<path d="M37.8922 275.408C36.3588 275.451 34.8105 275.391 33.2473 275.179C28.2714 274.58 23.2321 272.598 19.1343 269.69C14.9104 266.542 9.6782 264.427 4.4664 263.794C-4.00402 262.666 -12.8903 265.333 -18.8491 271.366C-19.5708 261.658 -13.423 251.045 -4.38403 247.234L-4.37769 247.22C11.3528 239.575 32.8383 249.448 37.0764 266.434L37.0701 266.448C37.875 269.373 38.166 272.406 37.8922 275.408Z" fill="#087583" stroke="#087583" stroke-width="0.435114" stroke-miterlimit="10"/>
</g>
</g>
</svg>
