<svg width="25" height="25" viewBox="0 0 25 25" fill="none" xmlns="http://www.w3.org/2000/svg">
<path d="M18.0799 3.01896C18.8756 3.01651 19.6376 3.33018 20.1982 3.89099C20.7587 4.45179 21.072 5.21378 21.069 6.00933L21.0241 18.0078C21.0211 18.8034 20.7021 19.5673 20.1373 20.1316C19.5725 20.6958 18.8082 21.0142 18.0125 21.0167L6.0111 21.0537C5.21536 21.0561 4.45339 20.7425 3.89283 20.1817C3.33226 19.6209 3.01901 18.8589 3.02199 18.0633L3.06694 6.06483C3.06992 5.26928 3.38888 4.50534 3.95366 3.94106C4.51844 3.37679 5.28277 3.05841 6.07851 3.05596L18.0799 3.01896ZM18.0724 5.01871L6.07102 5.0557C5.80578 5.05652 5.551 5.16265 5.36274 5.35074C5.17448 5.53883 5.06816 5.79348 5.06716 6.05866L5.02222 18.0571C5.02123 18.3223 5.12564 18.5763 5.3125 18.7633C5.49936 18.9502 5.75334 19.0548 6.01859 19.0539L18.02 19.0169C18.2852 19.0161 18.54 18.91 18.7282 18.7219C18.9165 18.5338 19.0228 18.2792 19.0238 18.014L19.0688 6.0155C19.0698 5.75031 18.9653 5.49632 18.7785 5.30938C18.5916 5.12245 18.3376 5.01789 18.0724 5.01871ZM8.05253 10.0489C8.29749 10.0482 8.53358 10.1374 8.71603 10.2995C8.89847 10.4617 9.01458 10.6856 9.04233 10.9287L9.0489 11.0457L9.03017 16.0451C9.02893 16.2999 8.93041 16.5453 8.75472 16.7312C8.57904 16.917 8.33946 17.0293 8.08493 17.045C7.83041 17.0607 7.58014 16.9787 7.38528 16.8158C7.19042 16.6528 7.06566 16.4212 7.0365 16.1682L7.02994 16.0512L7.04867 11.0519C7.04966 10.7867 7.15598 10.532 7.34424 10.3439C7.5325 10.1559 7.78728 10.0497 8.05253 10.0489ZM11.0566 9.03978C11.2908 9.03903 11.5173 9.12048 11.6966 9.26994C11.8759 9.4194 11.9966 9.62739 12.0377 9.85765C12.2395 9.74072 12.448 9.63558 12.6619 9.54276C13.33 9.25574 14.3297 9.09568 15.2308 9.37587C15.7033 9.52439 16.1773 9.80289 16.5275 10.2787C16.841 10.7027 17.0091 11.2191 17.0409 11.8L17.0461 12.0209L17.0311 16.0204C17.0298 16.2752 16.9313 16.5207 16.7556 16.7065C16.58 16.8924 16.3404 17.0046 16.0858 17.0203C15.8313 17.0361 15.5811 16.9541 15.3862 16.7911C15.1913 16.6281 15.0666 16.3965 15.0374 16.1435L15.0309 16.0266L15.0458 12.0271C15.0471 11.6971 14.9676 11.5434 14.9159 11.4725C14.8415 11.3801 14.7389 11.3144 14.6236 11.2855C14.2759 11.1766 13.7747 11.2361 13.4411 11.3791C12.9402 11.5946 12.4809 11.932 12.1677 12.2439L12.0442 12.3763L12.0305 16.0358C12.0293 16.2907 11.9308 16.5361 11.7551 16.7219C11.5794 16.9078 11.3398 17.02 11.0853 17.0358C10.8307 17.0515 10.5805 16.9695 10.3856 16.8065C10.1908 16.6435 10.066 16.4119 10.0368 16.1589L10.0303 16.042L10.0528 10.0427C10.0537 9.77756 10.1601 9.52291 10.3483 9.33482C10.5366 9.14673 10.7914 9.0406 11.0566 9.03978ZM8.06376 7.04928C8.32901 7.04847 8.583 7.15303 8.76985 7.33996C8.95671 7.52689 9.06112 7.78089 9.06013 8.04607C9.05914 8.31126 8.95282 8.5659 8.76456 8.754C8.5763 8.94209 8.32152 9.04821 8.05627 9.04903C7.79103 9.04985 7.53704 8.94529 7.35018 8.75836C7.16333 8.57142 7.05891 8.31742 7.0599 8.05224C7.0609 7.78706 7.16722 7.53241 7.35548 7.34432C7.54374 7.15623 7.79852 7.0501 8.06376 7.04928Z" fill="#FEFEFE"/>
</svg>
