<svg width="25" height="25" viewBox="0 0 25 25" fill="none" xmlns="http://www.w3.org/2000/svg">
<path d="M8.2448 11.2643C13.3154 11.2486 13.29 18.0308 8.21939 18.0464L2.02169 18.0655L2.04709 11.2834M8.2448 11.2643L2.04709 11.2834M8.2448 11.2643C13.3154 11.2486 13.3387 5.03242 8.26808 5.04805L2.07037 5.06716L2.04709 11.2834M14.0399 13.5291C14.0492 11.0444 15.847 9.02414 18.0572 9.01732C20.2675 9.01051 22.0501 11.0197 22.0408 13.5044L14.0399 13.5291ZM14.0399 13.5291C14.0306 16.0138 15.8133 18.023 18.0235 18.0162C20.7788 18.0077 21.5314 16.0056 21.5314 16.0056M20.5687 6.00999L15.5682 6.02541" stroke="#FEFEFE" stroke-width="1.5" stroke-linecap="round" stroke-linejoin="round"/>
</svg>
