<svg width="27" height="27" viewBox="0 0 27 27" fill="none" xmlns="http://www.w3.org/2000/svg">
<g clip-path="url(#clip0_5871_50758)">
<path d="M15.2415 22.4116C15.2415 22.4116 15.4873 20.1535 15.5663 19.4274C15.6345 18.8007 15.9276 17.493 15.3398 16.8899C16.7359 16.9016 17.8684 16.5645 18.9821 15.7529C20.0958 14.9412 20.7235 13.6072 20.9606 11.4288C21.123 9.93674 20.9827 8.91665 20.3453 7.84585C20.7181 7.09939 20.8999 5.8909 20.6701 4.86169C19.1191 4.70343 17.6014 5.62474 17.0279 5.9987C16.6509 5.85966 15.7597 5.36641 14.0993 5.19699C12.4389 5.02757 11.461 5.3301 11.0624 5.39001C10.582 4.90851 9.29597 3.70112 7.74495 3.54286C7.29864 4.50308 7.21627 5.72171 7.42016 6.52701C6.56621 7.44564 6.20938 8.415 6.04698 9.90708C5.80988 12.0855 6.13663 13.5169 7.05116 14.5355C7.96568 15.5541 9.00069 16.1123 10.3686 16.3826C9.66389 16.8538 9.66904 18.192 9.60083 18.8187C9.5218 19.5449 9.27603 21.8029 9.27603 21.8029" stroke="#FEFEFE" stroke-width="2" stroke-linecap="round" stroke-linejoin="round"/>
<path d="M9.48959 19.8129C8.0877 19.6698 6.72656 18.9677 5.94966 18.2548C5.1827 17.5429 5.04566 16.493 3.90305 15.7227" stroke="#FEFEFE" stroke-width="2" stroke-linecap="round" stroke-linejoin="round"/>
</g>
<defs>
<clipPath id="clip0_5871_50758">
<rect width="24" height="24" fill="white" transform="matrix(0.994244 0.101449 -0.108265 0.994719 2.59836 0)"/>
</clipPath>
</defs>
</svg>
